<svg width="65" height="64" viewBox="0 0 65 64" fill="none" xmlns="http://www.w3.org/2000/svg">
<g clip-path="url(#clip0_9_106)">
<path d="M24.6583 50.6046C11.3666 54.5921 11.3666 43.9587 6.04993 42.6296M43.2666 58.5796V48.2918C43.3663 47.0242 43.1951 45.7499 42.7642 44.5537C42.3334 43.3574 41.6528 42.2665 40.7678 41.3536C49.1149 40.4232 57.8874 37.2597 57.8874 22.7452C57.8867 19.0337 56.4591 15.4646 53.8999 12.7765C55.1117 9.52935 55.0261 5.94019 53.6607 2.75457C53.6607 2.75457 50.5238 1.82416 43.2666 6.68891C37.1737 5.03761 30.7511 5.03761 24.6583 6.68891C17.401 1.82416 14.2642 2.75457 14.2642 2.75457C12.8988 5.94019 12.8131 9.52935 14.0249 12.7765C11.4467 15.4845 10.0175 19.0859 10.0374 22.825C10.0374 37.2332 18.8099 40.3966 27.1571 41.4333C26.2825 42.3371 25.608 43.4149 25.1775 44.5965C24.7469 45.7782 24.57 47.0373 24.6583 48.2918V58.5796" stroke="#737373" stroke-width="4" stroke-linecap="round" stroke-linejoin="round"/>
</g>
<defs>
<clipPath id="clip0_9_106">
<rect width="63.8" height="63.8" fill="white" transform="translate(0.733276 0.0962524)"/>
</clipPath>
</defs>
</svg>
