<svg width="64" height="64" viewBox="0 0 64 64" fill="none" xmlns="http://www.w3.org/2000/svg">
<path d="M42.5333 21.2667C46.7635 21.2667 50.8205 22.9471 53.8117 25.9383C56.8029 28.9295 58.4833 32.9864 58.4833 37.2167V55.825H47.85V37.2167C47.85 35.8066 47.2898 34.4543 46.2928 33.4572C45.2957 32.4601 43.9434 31.9 42.5333 31.9C41.1232 31.9 39.7709 32.4601 38.7739 33.4572C37.7768 34.4543 37.2167 35.8066 37.2167 37.2167V55.825H26.5833V37.2167C26.5833 32.9864 28.2638 28.9295 31.255 25.9383C34.2462 22.9471 38.3031 21.2667 42.5333 21.2667Z" stroke="#737373" stroke-width="4" stroke-linecap="round" stroke-linejoin="round"/>
<path d="M15.95 23.925H5.31665V55.825H15.95V23.925Z" stroke="#737373" stroke-width="4" stroke-linecap="round" stroke-linejoin="round"/>
<path d="M10.6333 15.95C13.5696 15.95 15.95 13.5696 15.95 10.6333C15.95 7.697 13.5696 5.31665 10.6333 5.31665C7.697 5.31665 5.31665 7.697 5.31665 10.6333C5.31665 13.5696 7.697 15.95 10.6333 15.95Z" stroke="#737373" stroke-width="4" stroke-linecap="round" stroke-linejoin="round"/>
</svg>
