<svg width="65" height="64" viewBox="0 0 65 64" fill="none" xmlns="http://www.w3.org/2000/svg">
<path d="M47.2541 17.2792H47.2807M19.3416 5.31665H45.9249C53.2657 5.31665 59.2166 11.2675 59.2166 18.6083V45.1916C59.2166 52.5324 53.2657 58.4833 45.9249 58.4833H19.3416C12.0008 58.4833 6.04993 52.5324 6.04993 45.1916V18.6083C6.04993 11.2675 12.0008 5.31665 19.3416 5.31665ZM43.2666 30.2252C43.5947 32.4376 43.2168 34.6971 42.1867 36.6824C41.1566 38.6676 39.5267 40.2775 37.5289 41.283C35.5311 42.2886 33.2671 42.6386 31.059 42.2833C28.8508 41.9279 26.8109 40.8854 25.2294 39.3039C23.6479 37.7224 22.6053 35.6825 22.25 33.4743C21.8947 31.2661 22.2447 29.0021 23.2502 27.0043C24.2558 25.0065 25.8656 23.3767 27.8509 22.3466C29.8361 21.3165 32.0956 20.9386 34.308 21.2667C36.5647 21.6013 38.654 22.6529 40.2672 24.2661C41.8804 25.8793 42.9319 27.9685 43.2666 30.2252Z" stroke="#737373" stroke-width="4" stroke-linecap="round" stroke-linejoin="round"/>
</svg>
